
  <svg
    width="100%"
    height="100%"
    viewBox="0 0 1000 1000"
    xmlns="http://www.w3.org/2000/svg"
  >
  <defs>
      
    <filter id='doodle'>
      <feTurbulence 
        result="TURBULENCE" 
        baseFrequency="0.05908233805440928" 
        numOctaves="1" 
        seed="1" 
      />
      <feDisplacementMap in="SourceGraphic" in2="TURBULENCE" scale="20" />
    </filter>

    <filter id="offset-1">
      <feOffset dx="30" dy="0" result="OFFSET-1"/>
    </filter>

    <filter id="offset-2">
      <feOffset dx="20" dy="0" result="OFFSET-2"/>
    </filter>

    <filter id="offset-3">
      <feOffset dx="0" dy="50" result="OFFSET-3"/>
    </filter>

    <mask id="brush-mask">
      <rect x="0" y="0" width="1000" height="1000" fill="white" filterUnits="userSpaceOnUse"/>
      
  <circle 
    cx='765' 
    cy='461' 
    r='7px' 
    fill='black'  
    filter='url(#doodle)'
  />
  <circle 
    cx='549' 
    cy='411' 
    r='9px' 
    fill='black'  
    filter='url(#doodle)'
  />
  <circle 
    cx='325' 
    cy='236' 
    r='7px' 
    fill='black'  
    filter='url(#doodle)'
  />
  <circle 
    cx='496' 
    cy='308' 
    r='6px' 
    fill='black'  
    filter='url(#doodle)'
  />
  
      
    <g filter="url(#offset-3)">
      <path
        fill="none"
        stroke-width="7px"
        stroke="black"
        d="M832 675.5 Q 716.945242749392 852.1634238715068 506.5 839.5"
        filter="url(#doodle)"
      />
    </g>


    <g filter="url(#offset-3)">
      <path
        fill="none"
        stroke-width="5px"
        stroke="black"
        d="M250 664 Q 174.01969028854379 494.6837499347709 242 322"
        filter="url(#doodle)"
      />
    </g>


    <g filter="url(#offset-3)">
      <path
        fill="none"
        stroke-width="5px"
        stroke="black"
        d="M476 186 Q 691.7197323208686 183.25052961230523 809.5 364"
        filter="url(#doodle)"
      />
    </g>


    </mask>

      
      
      <clipPath id="shape">
        <path fill="currentColor" d="M832,675.5Q702,851,506.5,839.5Q311,828,250,664Q189,500,242,322Q295,144,476,186Q657,228,809.5,364Q962,500,832,675.5Z"></path>
      </clipPath> 
    </defs>
  
    <g  mask="url(#brush-mask)">
      <path
        filter='url(#doodle)'
        fill="#ffffff"
        d="M832,675.5Q702,851,506.5,839.5Q311,828,250,664Q189,500,242,322Q295,144,476,186Q657,228,809.5,364Q962,500,832,675.5Z"  
      />
    </g>
  
  </svg>